<?xml version="1.0" encoding="utf-8"?>
<!-- Generator: Adobe Illustrator 27.5.0, SVG Export Plug-In . SVG Version: 6.00 Build 0)  -->
<svg version="1.1" xmlns="http://www.w3.org/2000/svg" xmlns:xlink="http://www.w3.org/1999/xlink" x="0px" y="0px"
	 viewBox="0 0 1122 1122" style="enable-background:new 0 0 1122 1122;" xml:space="preserve">
<g id="BG">
	<rect x="0" style="fill:#FFFFFF;" width="1122" height="1122"/>
</g>
<g id="Alphabet_1_">
	<g>
		<linearGradient id="SVGID_1_" gradientUnits="userSpaceOnUse" x1="430.9165" y1="661.1985" x2="601.5056" y2="661.1985">
			<stop  offset="0" style="stop-color:#91C5C8"/>
			<stop  offset="1" style="stop-color:#787FAF"/>
		</linearGradient>
		<polygon style="fill:url(#SVGID_1_);" points="521.086,365.056 601.506,445.475 511.587,957.342 430.917,876.434 		"/>
		
			<linearGradient id="SVGID_00000100376854149856822730000014612371441750080396_" gradientUnits="userSpaceOnUse" x1="303.4943" y1="916.0308" x2="511.5873" y2="916.0308">
			<stop  offset="0" style="stop-color:#91C5C8"/>
			<stop  offset="1" style="stop-color:#9BBCE3"/>
		</linearGradient>
		<polygon style="fill:url(#SVGID_00000100376854149856822730000014612371441750080396_);" points="303.494,876.138 383.913,956.75 
			511.587,956.75 430.168,875.311 		"/>
		
			<linearGradient id="SVGID_00000152960320816410933390000013955985246764076416_" gradientUnits="userSpaceOnUse" x1="571.8415" y1="914.7446" x2="791.6962" y2="914.7446">
			<stop  offset="0" style="stop-color:#91C5C8"/>
			<stop  offset="1" style="stop-color:#9BBCE3"/>
		</linearGradient>
		<polygon style="fill:url(#SVGID_00000152960320816410933390000013955985246764076416_);" points="571.841,876.138 652.26,956.75 
			791.696,956.75 708.737,872.739 		"/>
		
			<linearGradient id="SVGID_00000181790032918801644510000002533426434566962087_" gradientUnits="userSpaceOnUse" x1="520.9066" y1="404.6229" x2="678.7569" y2="404.6229">
			<stop  offset="0" style="stop-color:#91C5C8"/>
			<stop  offset="1" style="stop-color:#9BBCE3"/>
		</linearGradient>
		<polygon style="fill:url(#SVGID_00000181790032918801644510000002533426434566962087_);" points="520.907,364.534 
			601.506,444.712 678.757,444.712 678.757,364.958 		"/>
		<path style="fill:#5D75B6;" d="M303.494,876.197l112.786-639.645h191.556c26.436,0,50.437,5.063,72.003,15.189
			c21.553,10.126,39.374,23.918,53.467,41.349c14.078,17.444,24.129,37.842,30.139,61.18c6.008,23.351,6.683,48.245,2.022,74.682
			c-6.449,36.576-21.452,69.763-44.983,99.575c-23.548,29.825-51.941,52.886-85.196,69.196l76.633,278.474H571.841l-70.524-255.689
			h-25.316l-45.085,255.689H303.494z M498.618,492.241h64.134c17.998,0,34.278-6.184,48.842-18.565
			c14.548-12.368,23.375-27.281,26.45-44.725c3.174-17.998-0.345-33.188-10.529-45.569c-10.201-12.368-24.297-18.565-42.295-18.565
			h-64.134L498.618,492.241z"/>
		<g>
			
				<linearGradient id="SVGID_00000147201165047526991740000012322732509252828838_" gradientUnits="userSpaceOnUse" x1="713.8655" y1="274.7814" x2="717.0739" y2="274.7814">
				<stop  offset="0" style="stop-color:#8AC8FA"/>
				<stop  offset="0.9949" style="stop-color:#D96569"/>
			</linearGradient>
			<path style="fill:url(#SVGID_00000147201165047526991740000012322732509252828838_);" d="M717.074,276.325l-3.111-3.087
				l-0.097,0.315C714.95,274.462,716.019,275.386,717.074,276.325z"/>
			
				<linearGradient id="SVGID_00000157272434958686772240000000882830568945661112_" gradientUnits="userSpaceOnUse" x1="629.9661" y1="622.0764" x2="848.9413" y2="622.0764">
				<stop  offset="0" style="stop-color:#8AC8FA"/>
				<stop  offset="0.9949" style="stop-color:#D96569"/>
			</linearGradient>
			<path style="fill:url(#SVGID_00000157272434958686772240000000882830568945661112_);" d="M843.866,434.926
				c-6.01-23.338-16.062-43.736-30.139-61.18c-2.198-2.718-4.497-5.337-6.876-7.878l0.32-0.136l-78.934-78.33
				c1.739,1.927,3.432,3.899,5.07,5.925c14.078,17.444,24.129,37.842,30.139,61.18c6.008,23.351,6.683,48.245,2.022,74.682
				c-6.449,36.576-21.452,69.763-44.983,99.575c-23.548,29.825-51.941,52.487-85.196,68.797l76.633,278.074h-81.956l22.294,81.115
				h140.081l-76.633-278.422c33.255-16.31,61.648-39.345,85.196-69.17c23.531-29.812,38.534-62.987,44.983-99.563
				C850.549,483.158,849.873,458.278,843.866,434.926z"/>
		</g>
	</g>
</g>
</svg>
